<?xml version="1.0" standalone="no"?><!DOCTYPE svg PUBLIC "-//W3C//DTD SVG 1.1//EN" "http://www.w3.org/Graphics/SVG/1.1/DTD/svg11.dtd"><svg t="1716878390214" class="icon" viewBox="0 0 1024 1024" version="1.1" xmlns="http://www.w3.org/2000/svg" p-id="8400" xmlns:xlink="http://www.w3.org/1999/xlink" width="200" height="200"><path d="M341.326933 0.0192a63.9988 63.9988 0 0 1 6.143885 127.698939L341.326933 128.0168H127.9976v767.9856h767.9856v-213.329333a63.9988 63.9988 0 0 1 57.854916-63.700139l6.143884-0.298661a63.9988 63.9988 0 0 1 63.700139 57.854915L1023.9808 682.673067v243.19544a98.131493 98.131493 0 0 1-91.432952 97.918164L925.849307 1024H98.131493a98.131493 98.131493 0 0 1-97.918164-91.432952L0 925.868507V98.150693A98.131493 98.131493 0 0 1 91.432952 0.232529L98.131493 0.0192H341.326933z m341.028273 31.146082a106.408672 106.408672 0 0 1 150.482512 0l159.997 159.997a106.408672 106.408672 0 0 1 0 150.482512l-76.371902 76.371902-388.984706 388.984706a63.9988 63.9988 0 0 1-37.289968 18.260991l-6.058553 0.426659-208.764085 6.271882a81.022481 81.022481 0 0 1-82.899779-72.574639l-0.426659-6.39988v-4.351919l6.229216-208.764085a63.9988 63.9988 0 0 1 14.634393-38.825939l4.095923-4.522582 388.984706-388.94204zM635.294755 259.299671l-309.839524 309.796858-4.010591 133.458831 133.458831-4.010591 309.796858-309.839524-129.405574-129.405574z m122.280374-122.323039l-31.786071 31.78607 129.44824 129.44824 31.78607-31.786071-129.448239-129.448239z" fill="#000000" p-id="8401"></path></svg>