<?xml version="1.0" standalone="no"?><!DOCTYPE svg PUBLIC "-//W3C//DTD SVG 1.1//EN" "http://www.w3.org/Graphics/SVG/1.1/DTD/svg11.dtd"><svg t="1716862655043" class="icon" viewBox="0 0 1024 1024" version="1.1" xmlns="http://www.w3.org/2000/svg" p-id="15003" xmlns:xlink="http://www.w3.org/1999/xlink" width="200" height="200"><path d="M192 256a42.666667 42.666667 0 1 1-85.333333 0 42.666667 42.666667 0 0 1 85.333333 0z m725.333333 0a42.666667 42.666667 0 0 1-42.666666 42.666667H320a42.666667 42.666667 0 1 1 0-85.333334h554.666667a42.666667 42.666667 0 0 1 42.666666 42.666667zM192 512a42.666667 42.666667 0 1 1-85.333333 0 42.666667 42.666667 0 0 1 85.333333 0z m725.333333 0a42.666667 42.666667 0 0 1-42.666666 42.666667H320a42.666667 42.666667 0 1 1 0-85.333334h554.666667a42.666667 42.666667 0 0 1 42.666666 42.666667zM192 768a42.666667 42.666667 0 1 1-85.333333 0 42.666667 42.666667 0 0 1 85.333333 0z m725.333333 0a42.666667 42.666667 0 0 1-42.666666 42.666667H320a42.666667 42.666667 0 1 1 0-85.333334h554.666667a42.666667 42.666667 0 0 1 42.666666 42.666667z" fill="#262C66" p-id="15004"></path></svg>