<?xml version="1.0" standalone="no"?><!DOCTYPE svg PUBLIC "-//W3C//DTD SVG 1.1//EN" "http://www.w3.org/Graphics/SVG/1.1/DTD/svg11.dtd"><svg t="1716737920438" class="icon" viewBox="0 0 1024 1024" version="1.1" xmlns="http://www.w3.org/2000/svg" p-id="9075" xmlns:xlink="http://www.w3.org/1999/xlink" width="200" height="200"><path d="M256 85.333333v202.752a74.666667 74.666667 0 0 0 68.522667 74.453334l6.144 0.213333h256a74.666667 74.666667 0 0 0 74.410666-68.522667l0.256-6.144V85.333333h5.802667c13.738667 0 26.965333 5.290667 36.864 14.762667l202.666667 187.904c10.538667 10.069333 32 24.234667 32 53.333333v51.2l-8.96-6.912a128 128 0 0 0-165.973334 8.277334l-149.674666 141.141333H288A74.666667 74.666667 0 0 0 213.333333 609.706667v328.106666h64v-328.106666a10.666667 10.666667 0 0 1 10.666667-10.666667h258.218667l-153.557334 144.896a85.333333 85.333333 0 0 0-26.752 62.08v109.141333c0 8.106667 0.853333 15.957333 2.56 23.552L181.333333 938.666667C128.298667 938.666667 85.333333 891.434667 85.333333 838.4V181.333333A96 96 0 0 1 181.333333 85.333333H256z m682.666667 564.650667v188.416c0 53.034667-55.765333 100.266667-108.8 100.266667h-165.290667L938.666667 649.984z m-37.12-192.896c30.72 23.978667 36.352 83.242667 0.042666 119.594667l-346.368 346.24c-10.069333 10.069333-20.821333 15.744-35.072 15.744h-60.117333c-20.181333 0-33.365333-7.338667-33.365333-27.52v-68.693334c0-14.250667 5.674667-27.946667 15.744-37.973333l342.784-327.68c36.266667-36.266667 81.109333-50.773333 116.394666-19.712zM597.333333 85.333333v202.752a10.666667 10.666667 0 0 1-8.234666 10.410667l-2.432 0.256h-256a10.666667 10.666667 0 0 1-10.368-8.192L320 288.085333V85.333333H597.333333z" fill="#212121" p-id="9076"></path></svg>