<?xml version="1.0" standalone="no"?><!DOCTYPE svg PUBLIC "-//W3C//DTD SVG 1.1//EN" "http://www.w3.org/Graphics/SVG/1.1/DTD/svg11.dtd"><svg t="1716862660707" class="icon" viewBox="0 0 1024 1024" version="1.1" xmlns="http://www.w3.org/2000/svg" p-id="15163" xmlns:xlink="http://www.w3.org/1999/xlink" width="200" height="200"><path d="M640 128a42.666667 42.666667 0 0 1 60.330667 0l161.834666 161.834667a42.666667 42.666667 0 0 1 0 60.330666L700.330667 512A42.666667 42.666667 0 1 1 640 451.669333l83.413333-83.434666c-119.402667 12.416-225.770667 44.821333-308.586666 90.133333-86.784 47.445333-143.573333 106.453333-167.36 167.957333-8.512 21.973333-29.845333 38.4-53.162667 34.986667-23.317333-3.370667-39.765333-25.173333-32.789333-47.701333 29.354667-94.656 109.013333-173.610667 212.352-230.122667 98.453333-53.824 222.72-90.026667 359.381333-101.909333L640 188.373333A42.666667 42.666667 0 0 1 640 128zM256 832a42.666667 42.666667 0 0 1-42.666667-42.666667 42.666667 42.666667 0 1 0-85.333333 0v14.208A113.770667 113.770667 0 0 0 241.770667 917.333333h540.458666A113.770667 113.770667 0 0 0 896 803.541333V789.333333a42.666667 42.666667 0 1 0-85.333333 0 42.666667 42.666667 0 0 1-42.666667 42.666667H256z" fill="#262C66" p-id="15164"></path></svg>