<?xml version="1.0" standalone="no"?><!DOCTYPE svg PUBLIC "-//W3C//DTD SVG 1.1//EN" "http://www.w3.org/Graphics/SVG/1.1/DTD/svg11.dtd"><svg t="1716878632280" class="icon" viewBox="0 0 1024 1024" version="1.1" xmlns="http://www.w3.org/2000/svg" p-id="15366" xmlns:xlink="http://www.w3.org/1999/xlink" width="200" height="200"><path d="M938.666667 618.666667l-80.64 60.202666-55.594667 30.634667L729.685333 768l-125.226666-34.474667 4.522666-456.192 120.704-37.632L789.333333 170.666667l149.333334 29.525333z" fill="#2c2c2c" p-id="15367"></path><path d="M426.368 320a21.333333 21.333333 0 0 1 21.034667 17.493333l0.341333 3.84 0.256 350.549334c0 57.728-55.68 97.450667-128 97.450666a21.333333 21.333333 0 1 1 0-42.666666c48.554667 0 81.706667-21.802667 85.034667-50.005334l0.298666-4.778666L405.077333 341.333333a21.333333 21.333333 0 0 1 21.333334-21.333333z" fill="#2c2c2c" p-id="15368"></path><path d="M320 234.666667c71.210667 0 128 27.946667 128 85.333333s-56.832 85.333333-128 85.333333c-9.130667 0-18.346667-0.512-27.306667-1.578666a21.333333 21.333333 0 1 1 4.992-42.368c7.253333 0.853333 14.805333 1.28 22.314667 1.28 50.602667 0 85.333333-17.066667 85.333333-42.666667s-34.730667-42.666667-85.333333-42.666667-85.333333 17.066667-85.333333 42.666667a31.146667 31.146667 0 0 0 0.810666 7.253333l0.981334 3.2a21.333333 21.333333 0 1 1-39.936 15.061334A71.850667 71.850667 0 0 1 192 320c0-57.386667 56.832-85.333333 128-85.333333zM298.368 405.333333a21.333333 21.333333 0 0 1 21.034667 17.493334l0.341333 3.84 0.256 350.549333c0 57.728-55.68 97.450667-128 97.450667-29.312 0-57.898667-7.424-80.810667-21.162667-27.562667-16.554667-44.458667-41.002667-46.890666-68.992l-0.298667-7.04L64.213333 426.666667a21.333333 21.333333 0 0 1 42.325334-3.84l0.341333 3.84-0.213333 350.805333c0 14.976 8.832 28.842667 26.496 39.466667 16.042667 9.6 37.034667 15.061333 58.837333 15.061333 48.554667 0 81.706667-21.802667 85.034667-50.005333l0.298666-4.778667L277.077333 426.666667a21.333333 21.333333 0 0 1 21.333334-21.333334z" fill="#2c2c2c" p-id="15369"></path><path d="M192 320c-71.168 0-128 27.946667-128 85.333333s56.832 85.333333 128 85.333334 128-27.946667 128-85.333334-56.789333-85.333333-128-85.333333z m0 42.666667c50.602667 0 85.333333 17.066667 85.333333 42.666666s-34.730667 42.666667-85.333333 42.666667-85.333333-17.066667-85.333333-42.666667 34.730667-42.666667 85.333333-42.666666z" fill="#2c2c2c" p-id="15370"></path><path d="M938.368 234.666667a21.333333 21.333333 0 0 1 21.034667 17.493333l0.341333 3.84 0.256 350.549333c0 57.728-55.68 97.450667-128 97.450667a21.333333 21.333333 0 1 1 0-42.666667c48.554667 0 81.706667-21.802667 85.034667-50.005333l0.298666-4.778667L917.077333 256a21.333333 21.333333 0 0 1 21.333334-21.333333z" fill="#2c2c2c" p-id="15371"></path><path d="M832 149.333333c71.210667 0 128 27.946667 128 85.333334s-56.832 85.333333-128 85.333333c-10.24 0-20.608-0.682667-30.634667-2.005333a21.333333 21.333333 0 1 1 5.674667-42.282667c8.106667 1.066667 16.554667 1.621333 24.96 1.621333 50.602667 0 85.333333-17.066667 85.333333-42.666666s-34.730667-42.666667-85.333333-42.666667-85.333333 17.066667-85.333333 42.666667c0 2.517333 0.256 4.821333 0.725333 6.954666l0.938667 3.114667a21.333333 21.333333 0 0 1-40.149334 14.506667A72.064 72.064 0 0 1 704 234.666667c0-57.386667 56.832-85.333333 128-85.333334zM810.368 320a21.333333 21.333333 0 0 1 21.034667 17.493333l0.341333 3.84 0.256 350.549334c0 57.728-55.68 97.450667-128 97.450666-29.312 0-57.898667-7.424-80.810667-21.162666-27.562667-16.554667-44.458667-41.002667-46.890666-68.992l-0.298667-8.874667 0.213333-349.013333a21.333333 21.333333 0 0 1 42.325334-3.797334l0.341333 3.84-0.213333 350.805334c0 14.976 8.832 28.842667 26.496 39.466666 16.042667 9.6 37.034667 15.061333 58.837333 15.061334 48.554667 0 81.706667-21.802667 85.034667-50.005334l0.298666-4.778666L789.077333 341.333333a21.333333 21.333333 0 0 1 21.333334-21.333333z" fill="#2c2c2c" p-id="15372"></path><path d="M704 234.666667c-71.168 0-128 27.946667-128 85.333333s56.832 85.333333 128 85.333333 128-27.946667 128-85.333333-56.789333-85.333333-128-85.333333z m0 42.666666c50.602667 0 85.333333 17.066667 85.333333 42.666667s-34.730667 42.666667-85.333333 42.666667-85.333333-17.066667-85.333333-42.666667 34.730667-42.666667 85.333333-42.666667zM525.354667 454.229333a21.333333 21.333333 0 0 1 27.221333-2.432l2.986667 2.432 42.666666 42.666667a21.333333 21.333333 0 0 1 2.432 27.221333l-2.474666 2.986667-42.666667 42.666667a21.333333 21.333333 0 0 1-32.64-27.221334l2.474667-2.986666 27.605333-27.562667-27.605333-27.562667a21.333333 21.333333 0 0 1-2.474667-27.221333l2.474667-2.986667z" fill="#2c2c2c" p-id="15373"></path><path d="M583.125333 490.666667a21.333333 21.333333 0 0 1 3.84 42.325333l-3.84 0.341333H426.666667a21.333333 21.333333 0 0 1-3.84-42.325333L426.666667 490.666667h156.458666z" fill="#2c2c2c" p-id="15374"></path></svg>