<?xml version="1.0" standalone="no"?><!DOCTYPE svg PUBLIC "-//W3C//DTD SVG 1.1//EN" "http://www.w3.org/Graphics/SVG/1.1/DTD/svg11.dtd"><svg t="1716861473479" class="icon" viewBox="0 0 1024 1024" version="1.1" xmlns="http://www.w3.org/2000/svg" p-id="10508" xmlns:xlink="http://www.w3.org/1999/xlink" width="200" height="200"><path d="M649.6 601.2c-1.1-0.8-2.9-0.8-5-0.2-2.7-2.5-6.5-6.2-10.9-10.2-2-1.9-6.5-0.2-12 3.2-8.3-7.7-29.9-27.8-34.8-32.3-6.1-5.6-44 32.2-36.4 39.2 5.1 4.8 25.8 23.9 34.3 31.8-3 5.6-4 10.1-1.5 12.4 4 3.8 7.5 7 10.1 9.4-0.5 2.5 0 4.5 1.4 5.8 5.3 4.5 19.4 18.1 36.8 34.1l54.9-59.2c-16.7-14.8-29.6-28.2-36.9-34z" p-id="10509"></path><path d="M838 944.9c-5.3-5-208.2-191.5-214.7-197.6-9.9-9-12.1-22.3-11.1-30.1 1.7-14.1 6.9-22 12.4-30.9 5.7-8.6 12.5-16.9 19.8-25 15.2-16 30.5-30.1 48.2-38.6 5.5-2.3 11.4-5 22.1-4.4 5.8 0.4 14 3.1 20.1 8.8 5.5 5.1 205.3 188.9 215.3 198.2 10 9.5 10.2 20.7 9.7 25.3-1.2 9-3.2 11.8-4.9 15.3-1.8 3.2-3.6 6.1-5.7 9-4 5.8-8.9 12-14.5 18.5-11.1 13.1-24.4 27.2-36.4 38.3-8.6 7.5-14.1 13.1-25.7 18.4-3.4 1.3-7.7 3.2-16.4 2.7h-0.2c-4.7-0.2-11.8-2.1-18-7.9z m23.2-58.2c0.5-0.5 1-0.8 1.4-1.3 9.9-9.3 21.5-22.1 30.2-32.4 0.1-0.1 0.2-0.4 0.4-0.5-52.5-49-139.4-127.4-185.5-170.3-1.2 0.8-2.4 1.8-3.6 2.9-9.1 7.6-19.8 18.7-26.9 27.9-0.8 1-1.5 2-2.3 3 45.7 42.1 134.7 122.4 186.3 170.7zM342.7 680.9c-65.1-5.6-129-32.2-180.7-80-71.9-66.5-104.7-160-96.9-250.7 5.6-65.2 32.2-129.3 80-181.1 66.5-72 159.8-104.8 250.4-97.1 65.1 5.6 129 32.2 180.7 80 71.9 66.5 104.6 160.1 96.8 250.7-5.6 65.2-32.1 129.3-80 181.1-66.4 72-159.7 104.8-250.1 97-0.1 0.1-0.1 0.1-0.2 0.1zM188 208.9c-38.7 41.9-60.1 93.5-64.6 146.4-6.3 73.4 20.1 148.8 78.3 202.7 41.8 38.7 93.3 60.1 146 64.6 73.4 6.3 148.5-20.1 202.4-78.4 38.7-41.9 60.1-93.5 64.6-146.4 6.3-73.4-20-148.8-78.2-202.6-41.9-38.9-93.4-60.1-146-64.8-73.5-6.2-148.7 20.2-202.5 78.5zM406 780.9h-68.6v-68.6c0-7-5.7-12.6-12.7-12.6h-55.8c-7 0-12.7 5.7-12.7 12.6v68.6h-68.4c-7 0-12.7 5.7-12.7 12.7v55.8c0 7 5.7 12.7 12.7 12.7h68.6v68.4c0 7 5.7 12.7 12.7 12.7h55.8c7 0 12.7-5.6 12.7-12.7v-68.6h68.6c7 0 12.7-5.7 12.7-12.7v-55.8c-0.2-6.8-5.9-12.5-12.9-12.5z" p-id="10510"></path></svg>