<?xml version="1.0" standalone="no"?><!DOCTYPE svg PUBLIC "-//W3C//DTD SVG 1.1//EN" "http://www.w3.org/Graphics/SVG/1.1/DTD/svg11.dtd"><svg t="1716862569884" class="icon" viewBox="0 0 1024 1024" version="1.1" xmlns="http://www.w3.org/2000/svg" p-id="14681" xmlns:xlink="http://www.w3.org/1999/xlink" width="200" height="200"><path d="M440.533333 373.333333a42.666667 42.666667 0 0 1 42.666667-42.666666h78.933333a42.666667 42.666667 0 0 1 0 85.333333h-78.933333a42.666667 42.666667 0 0 1-42.666667-42.666667z" fill="#262C66" p-id="14682"></path><path d="M401.536 192h44.928c62.805333 0 113.706667 0 153.834667 4.736 41.429333 4.906667 77.824 15.424 107.392 41.408 30.378667 26.688 43.477333 60.736 49.429333 99.605333 5.546667 36.266667 5.546667 81.92 5.546667 136.256v75.968c0 54.378667 0 100.010667-5.546667 136.277334-5.952 38.869333-19.050667 72.917333-49.429333 99.605333-29.568 25.984-65.962667 36.522667-107.392 41.408-40.106667 4.736-91.029333 4.736-153.834667 4.736h-44.928c-62.784 0-113.706667 0-153.834667-4.736-41.429333-4.906667-77.824-15.424-107.392-41.408-30.378667-26.688-43.477333-60.736-49.429333-99.605333-5.546667-36.266667-5.546667-81.92-5.546667-136.256v-72.661334-3.306666c0-54.378667 0-100.010667 5.546667-136.277334 5.952-38.869333 19.050667-72.917333 49.429333-99.605333 29.568-25.984 65.962667-36.522667 107.392-41.408C287.786667 192 338.752 192 401.536 192z m-143.829333 89.472c-33.813333 4.010667-50.218667 11.242667-61.098667 20.778667-10.069333 8.874667-17.216 21.184-21.376 48.405333C170.773333 379.712 170.666667 418.773333 170.666667 477.333333v69.333334c0 58.56 0.106667 97.621333 4.565333 126.677333 4.16 27.221333 11.306667 39.552 21.376 48.384 10.88 9.557333 27.285333 16.789333 61.098667 20.8 34.517333 4.053333 80.384 4.138667 146.56 4.138667h39.466666c66.176 0 112.042667-0.064 146.56-4.138667 33.813333-4.010667 50.218667-11.242667 61.098667-20.778667 10.069333-8.853333 17.216-21.184 21.376-48.405333 4.437333-29.056 4.565333-68.117333 4.565333-126.677333v-69.333334c0-58.56-0.128-97.621333-4.565333-126.677333-4.16-27.221333-11.306667-39.552-21.376-48.405333-10.88-9.536-27.285333-16.768-61.098667-20.778667-34.517333-4.053333-80.384-4.138667-146.56-4.138667h-39.466666c-66.176 0-112.042667 0.064-146.56 4.138667z" fill="#262C66" p-id="14683"></path><path d="M843.093333 372.565333c-21.781333 11.562667-50.218667 32.064-93.077333 63.125334l-4.970667 3.605333a42.666667 42.666667 0 0 1-50.090666-69.12l4.970666-3.584 2.666667-1.92c39.466667-28.629333 72.789333-52.778667 100.522667-67.477333 28.074667-14.912 62.357333-26.730667 97.706666-11.349334 37.013333 16.128 49.472 50.56 54.442667 81.450667 4.736 29.44 4.736 68.629333 4.736 113.92v61.568c0 45.290667 0 84.48-4.736 113.92-4.970667 30.869333-17.429333 65.322667-54.442667 81.450667-35.349333 15.381333-69.632 3.562667-97.706666-11.349334-27.733333-14.72-61.034667-38.826667-100.522667-67.456l-7.637333-5.546666a42.666667 42.666667 0 0 1 50.090666-69.077334l4.970667 3.605334c42.858667 31.061333 71.296 51.541333 93.098667 63.104 10.538667 5.589333 17.024 7.68 20.736 8.32 1.365333 0.256 2.133333 0.256 2.474666 0.234666 1.024-1.792 3.029333-6.506667 4.693334-16.853333 3.52-21.845333 3.648-53.973333 3.648-104.021333v-54.229334c0-50.026667-0.128-82.176-3.648-104.021333-1.664-10.346667-3.669333-15.061333-4.693334-16.853333-0.341333 0-1.109333 0-2.474666 0.213333-3.712 0.64-10.197333 2.752-20.757334 8.341333z" fill="#262C66" p-id="14684"></path></svg>